2Varta-Bold240.ufo
<glyph name="lVocalic-deva" format="1">
  <advance width="1289"/>
  <unicode hex="090C"/>
  <outline>
    <contour>
      <point x="666" y="943"/>
      <point x="557" y="775"/>
      <point x="557" y="574" type="curve" smooth="yes"/>
      <point x="557" y="529"/>
      <point x="562" y="485"/>
      <point x="577" y="446" type="curve"/>
      <point x="758" y="465" type="line"/>
      <point x="753" y="497"/>
      <point x="750" y="527"/>
      <point x="750" y="557" type="curve" smooth="yes"/>
      <point x="750" y="668"/>
      <point x="799" y="751"/>
      <point x="898" y="751" type="curve" smooth="yes"/>
      <point x="1002" y="751"/>
      <point x="1039" y="667"/>
      <point x="1039" y="563" type="curve" smooth="yes"/>
      <point x="1039" y="476"/>
      <point x="1027" y="404"/>
      <point x="965" y="274" type="curve"/>
      <point x="1004" y="329" type="line"/>
      <point x="830" y="256"/>
      <point x="763" y="153"/>
      <point x="763" y="49" type="curve"/>
      <point x="763" y="-86"/>
      <point x="875" y="-202"/>
      <point x="1041" y="-202" type="curve" smooth="yes"/>
      <point x="1148" y="-202"/>
      <point x="1251" y="-165"/>
      <point x="1329" y="-107" type="curve"/>
      <point x="1262" y="33" type="line"/>
      <point x="1197" y="-8"/>
      <point x="1124" y="-39"/>
      <point x="1056" y="-39" type="curve" smooth="yes"/>
      <point x="979" y="-39"/>
      <point x="952" y="2"/>
      <point x="952" y="47" type="curve" smooth="yes"/>
      <point x="952" y="111"/>
      <point x="1019" y="170"/>
      <point x="1148" y="218" type="curve"/>
      <point x="1205" y="333"/>
      <point x="1236" y="447"/>
      <point x="1236" y="558" type="curve" smooth="yes"/>
      <point x="1236" y="792"/>
      <point x="1118" y="943"/>
      <point x="889" y="943" type="curve" smooth="yes"/>
    </contour>
    <contour>
      <point x="-19" y="1287" type="line"/>
      <point x="-19" y="1104" type="line"/>
      <point x="1308" y="1104" type="line"/>
      <point x="1308" y="1287" type="line"/>
    </contour>
    <contour>
      <point x="855" y="1163" type="line"/>
      <point x="855" y="828" type="line"/>
      <point x="1065" y="828" type="line"/>
      <point x="1065" y="1163" type="line"/>
    </contour>
    <contour>
      <point x="167" y="940"/>
      <point x="54" y="815"/>
      <point x="54" y="597" type="curve" smooth="yes"/>
      <point x="54" y="334"/>
      <point x="214" y="132"/>
      <point x="308" y="24" type="curve"/>
      <point x="456" y="151" type="line"/>
      <point x="345" y="293"/>
      <point x="260" y="423"/>
      <point x="260" y="567" type="curve" smooth="yes"/>
      <point x="260" y="707"/>
      <point x="329" y="746"/>
      <point x="408" y="746" type="curve" smooth="yes"/>
      <point x="512" y="746"/>
      <point x="583" y="659"/>
      <point x="660" y="536" type="curve"/>
      <point x="679" y="671" type="line"/>
      <point x="607" y="860"/>
      <point x="504" y="940"/>
      <point x="358" y="940" type="curve" smooth="yes"/>
    </contour>
    <contour>
      <point x="929" y="1167" type="move" name="top"/>
    </contour>
    <contour>
      <point x="762" y="-80" type="move" name="bottom"/>
    </contour>
  </outline>
</glyph>
<glyph name="e-deva" format="1">
  <advance width="1059"/>
  <unicode hex="090F"/>
  <outline>
    <contour>
      <point x="124" y="1221" type="line"/>
      <point x="124" y="431" type="line" smooth="yes"/>
      <point x="124" y="142"/>
      <point x="277" y="-8"/>
      <point x="557" y="-8" type="curve" smooth="yes"/>
      <point x="688" y="-8"/>
      <point x="840" y="23"/>
      <point x="899" y="69" type="curve"/>
      <point x="834" y="234" type="line"/>
      <point x="797" y="214"/>
      <point x="685" y="174"/>
      <point x="568" y="174" type="curve" smooth="yes"/>
      <point x="401" y="174"/>
      <point x="334" y="255"/>
      <point x="334" y="398" type="curve" smooth="yes"/>
      <point x="334" y="1221" type="line"/>
    </contour>
    <contour>
      <point x="724" y="1190" type="line"/>
      <point x="724" y="782" type="line" smooth="yes"/>
      <point x="724" y="647"/>
      <point x="697" y="606"/>
      <point x="598" y="606" type="curve" smooth="yes"/>
      <point x="544" y="606"/>
      <point x="511" y="614"/>
      <point x="482" y="624" type="curve"/>
      <point x="458" y="448" type="line"/>
      <point x="505" y="433"/>
      <point x="538" y="423"/>
      <point x="614" y="423" type="curve" smooth="yes"/>
      <point x="825" y="423"/>
      <point x="934" y="543"/>
      <point x="934" y="766" type="curve" smooth="yes"/>
      <point x="934" y="1190" type="line"/>
    </contour>
    <contour>
      <point x="-19" y="1287" type="line"/>
      <point x="-19" y="1104" type="line"/>
      <point x="1078" y="1104" type="line"/>
      <point x="1078" y="1287" type="line"/>
    </contour>
    <contour>
      <point x="830" y="1167" type="move" name="top"/>
    </contour>
    <contour>
      <point x="573" y="54" type="move" name="bottom"/>
    </contour>
  </outline>
</glyph>
<glyph name="ai-deva" format="1">
  <advance width="1059"/>
  <unicode hex="0910"/>
  <outline>
    <component base="e-deva"/>
    <component base="eMatra-deva" xOffset="560"/>
    <contour>
      <point x="46" y="106" type="move" name="top"/>
    </contour>
    <contour>
      <point x="46" y="3" type="move" name="bottom"/>
    </contour>
  </outline>
</glyph>
<glyph name="ooeMatra-deva" format="1">
  <advance width="561"/>
  <unicode hex="093B"/>
  <outline>
    <contour>
      <point x="176" y="1091" type="line"/>
      <point x="386" y="1091" type="line"/>
      <point x="386" y="1538" type="line"/>
      <point x="176" y="1538" type="line"/>
    </contour>
    <component base="aaMatra-deva"/>
  </outline>
</glyph>
<glyph name="oMatra-deva" format="1">
  <advance width="561"/>
  <unicode hex="094B"/>
  <outline>
    <component base="aaMatra-deva"/>
    <component base="eMatra-deva" xOffset="11"/>
    <contour>
      <point x="395" y="1422" type="move" name="anusvara"/>
    </contour>
  </outline>
</glyph>
<glyph name="anudatta-deva" format="1">
  <advance width="540"/>
  <unicode hex="0952"/>
  <outline>
    <contour>
      <point x="-864" y="-289" type="line"/>
      <point x="-864" y="-459" type="line"/>
      <point x="-90" y="-459" type="line"/>
      <point x="-90" y="-289" type="line"/>
    </contour>
  </outline>
</glyph>
<glyph name="qa-deva" format="1">
  <advance width="1530"/>
  <unicode hex="0958"/>
  <outline>
    <component base="ka-deva"/>
    <component base="nukta-deva" xOffset="-126" yOffset="55"/>
    <contour>
      <point x="71" y="106" type="move" name="top"/>
    </contour>
    <contour>
      <point x="71" y="3" type="move" name="bottom"/>
    </contour>
    <contour>
      <point x="797" y="1167" type="move" name="topcandrabindu"/>
    </contour>
  </outline>
</glyph>
<glyph name="khha-deva" format="1">
  <advance width="1622"/>
  <unicode hex="0959"/>
  <outline>
    <component base="kha-deva"/>
    <component base="nukta-deva" xOffset="-146" yOffset="55"/>
    <contour>
      <point x="118" y="106" type="move" name="top"/>
    </contour>
    <contour>
      <point x="118" y="3" type="move" name="bottom"/>
    </contour>
    <contour>
      <point x="78" y="106" type="move" name="topcandrabindu"/>
    </contour>
  </outline>
</glyph>
<glyph name="dddha-deva" format="1">
  <advance width="1056"/>
  <unicode hex="095C"/>
  <outline>
    <component base="dda-deva"/>
    <component base="nukta-deva" xOffset="273" yOffset="-268"/>
    <contour>
      <point x="65" y="106" type="move" name="top"/>
    </contour>
    <contour>
      <point x="55" y="-4" type="move" name="bottom"/>
    </contour>
    <contour>
      <point x="46" y="106" type="move" name="topcandrabindu"/>
    </contour>
  </outline>
</glyph>
<glyph name="yya-deva" format="1">
  <advance width="1164"/>
  <unicode hex="095F"/>
  <outline>
    <component base="ya-deva"/>
    <component base="nukta-deva" xOffset="-77" yOffset="57"/>
    <contour>
      <point x="77" y="106" type="move" name="top"/>
    </contour>
    <contour>
      <point x="78" y="3" type="move" name="bottom"/>
    </contour>
  </outline>
</glyph>
<glyph name="lVocalicMatra-deva" format="1">
  <advance width="540"/>
  <unicode hex="0962"/>
  <outline>
    <contour>
      <point x="708" y="-659"/>
      <point x="650" y="-686"/>
      <point x="596" y="-686" type="curve" smooth="yes"/>
      <point x="546" y="-686"/>
      <point x="519" y="-656"/>
      <point x="519" y="-618" type="curve" smooth="yes"/>
      <point x="519" y="-563"/>
      <point x="574" y="-521"/>
      <point x="669" y="-478" type="curve"/>
      <point x="548" y="-387" type="line"/>
      <point x="408" y="-444"/>
      <point x="353" y="-530"/>
      <point x="353" y="-616" type="curve" smooth="yes"/>
      <point x="353" y="-740"/>
      <point x="452" y="-829"/>
      <point x="582" y="-829" type="curve" smooth="yes"/>
      <point x="670" y="-829"/>
      <point x="753" y="-798"/>
      <point x="817" y="-750" type="curve"/>
      <point x="763" y="-627" type="line"/>
    </contour>
    <contour>
      <point x="87" y="-418" type="line"/>
      <point x="4" y="-315"/>
      <point x="-32" y="-255"/>
      <point x="-32" y="-170" type="curve" smooth="yes"/>
      <point x="-32" y="-75"/>
      <point x="23" y="-43"/>
      <point x="84" y="-43" type="curve" smooth="yes"/>
      <point x="169" y="-43"/>
      <point x="231" y="-119"/>
      <point x="297" y="-226" type="curve"/>
      <point x="313" y="-101" type="line"/>
      <point x="252" y="58"/>
      <point x="165" y="125"/>
      <point x="41" y="125" type="curve" smooth="yes"/>
      <point x="-120" y="125"/>
      <point x="-214" y="20"/>
      <point x="-214" y="-162" type="curve" smooth="yes"/>
      <point x="-214" y="-300"/>
      <point x="-152" y="-403"/>
      <point x="-63" y="-513" type="curve"/>
      <point x="-58" y="-513" type="line"/>
    </contour>
    <contour>
      <point x="669" y="-478" type="line"/>
      <point x="724" y="-423"/>
      <point x="793" y="-303"/>
      <point x="793" y="-175" type="curve" smooth="yes"/>
      <point x="793" y="1"/>
      <point x="694" y="129"/>
      <point x="500" y="129" type="curve" smooth="yes"/>
      <point x="305" y="129"/>
      <point x="213" y="-13"/>
      <point x="213" y="-182" type="curve" smooth="yes"/>
      <point x="213" y="-221"/>
      <point x="217" y="-258"/>
      <point x="229" y="-293" type="curve"/>
      <point x="388" y="-277" type="line"/>
      <point x="383" y="-247"/>
      <point x="381" y="-220"/>
      <point x="381" y="-197" type="curve" smooth="yes"/>
      <point x="381" y="-107"/>
      <point x="420" y="-40"/>
      <point x="507" y="-40" type="curve" smooth="yes"/>
      <point x="587" y="-40"/>
      <point x="618" y="-107"/>
      <point x="618" y="-188" type="curve" smooth="yes"/>
      <point x="618" y="-263"/>
      <point x="575" y="-349"/>
      <point x="530" y="-402" type="curve"/>
      <point x="531" y="-409" type="line"/>
    </contour>
  </outline>
</glyph>
<glyph name="llVocalicMatra-deva" format="1">
  <advance width="540"/>
  <unicode hex="0963"/>
  <outline>
    <contour>
      <point x="652" y="-334"/>
      <point x="643" y="-333"/>
      <point x="629" y="-333" type="curve" smooth="yes"/>
      <point x="495" y="-333"/>
      <point x="319" y="-400"/>
      <point x="319" y="-541" type="curve" smooth="yes"/>
      <point x="319" y="-607"/>
      <point x="335" y="-714"/>
      <point x="573" y="-758" type="curve"/>
      <point x="662" y="-689" type="line"/>
      <point x="526" y="-667"/>
      <point x="497" y="-614"/>
      <point x="497" y="-568" type="curve" smooth="yes"/>
      <point x="497" y="-501"/>
      <point x="578" y="-483"/>
      <point x="669" y="-478" type="curve"/>
      <point x="669" y="-335" type="line"/>
    </contour>
    <contour>
      <point x="470" y="-661"/>
      <point x="390" y="-782"/>
      <point x="390" y="-886" type="curve" smooth="yes"/>
      <point x="390" y="-1009"/>
      <point x="484" y="-1098"/>
      <point x="626" y="-1098" type="curve" smooth="yes"/>
      <point x="723" y="-1098"/>
      <point x="817" y="-1067"/>
      <point x="889" y="-1014" type="curve"/>
      <point x="829" y="-890" type="line"/>
      <point x="769" y="-927"/>
      <point x="699" y="-954"/>
      <point x="642" y="-954" type="curve" smooth="yes"/>
      <point x="582" y="-954"/>
      <point x="559" y="-930"/>
      <point x="559" y="-884" type="curve" smooth="yes"/>
      <point x="559" y="-832"/>
      <point x="605" y="-798"/>
      <point x="728" y="-784" type="curve"/>
      <point x="708" y="-649" type="line"/>
    </contour>
    <contour>
      <point x="87" y="-418" type="line"/>
      <point x="4" y="-315"/>
      <point x="-32" y="-255"/>
      <point x="-32" y="-170" type="curve" smooth="yes"/>
      <point x="-32" y="-75"/>
      <point x="23" y="-43"/>
      <point x="84" y="-43" type="curve" smooth="yes"/>
      <point x="169" y="-43"/>
      <point x="231" y="-119"/>
      <point x="297" y="-226" type="curve"/>
      <point x="313" y="-101" type="line"/>
      <point x="252" y="58"/>
      <point x="165" y="125"/>
      <point x="41" y="125" type="curve" smooth="yes"/>
      <point x="-120" y="125"/>
      <point x="-214" y="20"/>
      <point x="-214" y="-162" type="curve" smooth="yes"/>
      <point x="-214" y="-300"/>
      <point x="-152" y="-403"/>
      <point x="-63" y="-513" type="curve"/>
      <point x="-58" y="-513" type="line"/>
    </contour>
    <contour>
      <point x="669" y="-478" type="line"/>
      <point x="724" y="-423"/>
      <point x="793" y="-303"/>
      <point x="793" y="-175" type="curve" smooth="yes"/>
      <point x="793" y="1"/>
      <point x="694" y="129"/>
      <point x="500" y="129" type="curve" smooth="yes"/>
      <point x="305" y="129"/>
      <point x="213" y="-13"/>
      <point x="213" y="-182" type="curve" smooth="yes"/>
      <point x="213" y="-221"/>
      <point x="217" y="-258"/>
      <point x="229" y="-293" type="curve"/>
      <point x="388" y="-277" type="line"/>
      <point x="383" y="-247"/>
      <point x="381" y="-220"/>
      <point x="381" y="-197" type="curve" smooth="yes"/>
      <point x="381" y="-107"/>
      <point x="420" y="-40"/>
      <point x="507" y="-40" type="curve" smooth="yes"/>
      <point x="587" y="-40"/>
      <point x="618" y="-107"/>
      <point x="618" y="-188" type="curve" smooth="yes"/>
      <point x="618" y="-263"/>
      <point x="575" y="-349"/>
      <point x="530" y="-402" type="curve"/>
      <point x="531" y="-409" type="line"/>
    </contour>
  </outline>
</glyph>
<glyph name="seven-deva" format="1">
  <advance width="1121"/>
  <unicode hex="096D"/>
  <outline>
    <contour>
      <point x="138" y="1128"/>
      <point x="81" y="902"/>
      <point x="77" y="669" type="curve" smooth="yes"/>
      <point x="74" y="468"/>
      <point x="129" y="36"/>
      <point x="563" y="36" type="curve" smooth="yes"/>
      <point x="977" y="36"/>
      <point x="1040" y="378"/>
      <point x="1040" y="634" type="curve" smooth="yes"/>
      <point x="1040" y="970"/>
      <point x="907" y="1122"/>
      <point x="686" y="1122" type="curve" smooth="yes"/>
      <point x="503" y="1121"/>
      <point x="407" y="1009"/>
      <point x="407" y="823" type="curve" smooth="yes"/>
      <point x="407" y="655"/>
      <point x="513" y="528"/>
      <point x="628" y="470" type="curve"/>
      <point x="730" y="591" type="line"/>
      <point x="633" y="663"/>
      <point x="588" y="735"/>
      <point x="588" y="817" type="curve" smooth="yes"/>
      <point x="588" y="896"/>
      <point x="620" y="940"/>
      <point x="695" y="940" type="curve" smooth="yes"/>
      <point x="795" y="940"/>
      <point x="840" y="831"/>
      <point x="840" y="625" type="curve" smooth="yes"/>
      <point x="840" y="463"/>
      <point x="815" y="229"/>
      <point x="569" y="229" type="curve" smooth="yes"/>
      <point x="361" y="229"/>
      <point x="283" y="376"/>
      <point x="283" y="675" type="curve" smooth="yes"/>
      <point x="283" y="856"/>
      <point x="332" y="1043"/>
      <point x="421" y="1240" type="curve"/>
      <point x="227" y="1312" type="line"/>
    </contour>
  </outline>
</glyph>
<glyph name="ooe-deva" format="1">
  <advance width="1962"/>
  <unicode hex="0974"/>
  <outline>
    <contour>
      <point x="1575" y="1091" type="line"/>
      <point x="1785" y="1091" type="line"/>
      <point x="1785" y="1538" type="line"/>
      <point x="1575" y="1538" type="line"/>
    </contour>
    <component base="aa-deva"/>
  </outline>
</glyph>
<glyph name="aw-deva" format="1">
  <advance width="1962"/>
  <unicode hex="0975"/>
  <outline>
    <contour>
      <point x="964" y="1827"/>
      <point x="958" y="1777"/>
      <point x="958" y="1753" type="curve" smooth="yes"/>
      <point x="958" y="1675"/>
      <point x="1009" y="1616"/>
      <point x="1201" y="1585" type="curve" smooth="yes"/>
      <point x="1462" y="1545" type="line" smooth="yes"/>
      <point x="1548" y="1531"/>
      <point x="1699" y="1513"/>
      <point x="1699" y="1381" type="curve" smooth="yes"/>
      <point x="1699" y="1335"/>
      <point x="1683" y="1300"/>
      <point x="1651" y="1239" type="curve"/>
      <point x="1733" y="1186" type="line"/>
      <point x="1810" y="1286"/>
      <point x="1839" y="1372"/>
      <point x="1839" y="1455" type="curve" smooth="yes"/>
      <point x="1839" y="1605"/>
      <point x="1748" y="1669"/>
      <point x="1552" y="1697" type="curve" smooth="yes"/>
      <point x="1260" y="1739" type="line" smooth="yes"/>
      <point x="1116" y="1760"/>
      <point x="1085" y="1784"/>
      <point x="1085" y="1829" type="curve" smooth="yes"/>
      <point x="1085" y="1838"/>
      <point x="1086" y="1849"/>
      <point x="1088" y="1861" type="curve"/>
      <point x="987" y="1878" type="line"/>
    </contour>
    <contour>
      <point x="821" y="1694"/>
      <point x="812" y="1656"/>
      <point x="812" y="1621" type="curve" smooth="yes"/>
      <point x="812" y="1510"/>
      <point x="892" y="1439"/>
      <point x="1073" y="1410" type="curve" smooth="yes"/>
      <point x="1440" y="1351" type="line" smooth="yes"/>
      <point x="1583" y="1328"/>
      <point x="1611" y="1311"/>
      <point x="1611" y="1246" type="curve" smooth="yes"/>
      <point x="1611" y="1223"/>
      <point x="1608" y="1193"/>
      <point x="1605" y="1156" type="curve"/>
      <point x="1671" y="1132" type="line"/>
      <point x="1689" y="1185"/>
      <point x="1703" y="1241"/>
      <point x="1703" y="1286" type="curve" smooth="yes"/>
      <point x="1703" y="1411"/>
      <point x="1652" y="1481"/>
      <point x="1451" y="1513" type="curve" smooth="yes"/>
      <point x="1117" y="1566" type="line" smooth="yes"/>
      <point x="966" y="1590"/>
      <point x="934" y="1622"/>
      <point x="933" y="1666" type="curve" smooth="yes"/>
      <point x="932" y="1687"/>
      <point x="935" y="1702"/>
      <point x="938" y="1721" type="curve"/>
      <point x="838" y="1736" type="line"/>
    </contour>
    <component base="aa-deva"/>
  </outline>
</glyph>
<glyph name="add" format="1">
  <advance width="1124"/>
  <outline>
    <contour>
      <point x="562" y="189"/>
      <point x="456" y="24"/>
      <point x="456" y="-173" type="curve" smooth="yes"/>
      <point x="456" y="-218"/>
      <point x="461" y="-260"/>
      <point x="476" y="-299" type="curve"/>
      <point x="654" y="-280" type="line"/>
      <point x="649" y="-249"/>
      <point x="646" y="-220"/>
      <point x="646" y="-190" type="curve" smooth="yes"/>
      <point x="646" y="-82"/>
      <point x="693" y="-0"/>
      <point x="792" y="-0" type="curve" smooth="yes"/>
      <point x="877" y="-0"/>
      <point x="931" y="-51"/>
      <point x="931" y="-146" type="curve" smooth="yes"/>
      <point x="931" y="-237"/>
      <point x="907" y="-336"/>
      <point x="734" y="-463" type="curve"/>
      <point x="838" y="-603" type="line"/>
      <point x="1053" y="-477"/>
      <point x="1125" y="-288"/>
      <point x="1125" y="-151" type="curve" smooth="yes"/>
      <point x="1125" y="58"/>
      <point x="999" y="189"/>
      <point x="784" y="189" type="curve" smooth="yes"/>
    </contour>
    <contour>
      <point x="74" y="186"/>
      <point x="-38" y="63"/>
      <point x="-38" y="-116" type="curve" smooth="yes"/>
      <point x="-38" y="-358"/>
      <point x="107" y="-496"/>
      <point x="279" y="-598" type="curve"/>
      <point x="369" y="-455" type="line"/>
      <point x="219" y="-361"/>
      <point x="165" y="-272"/>
      <point x="165" y="-146" type="curve" smooth="yes"/>
      <point x="165" y="-44"/>
      <point x="233" y="-5"/>
      <point x="309" y="-5" type="curve" smooth="yes"/>
      <point x="412" y="-5"/>
      <point x="483" y="-91"/>
      <point x="559" y="-211" type="curve"/>
      <point x="577" y="-78" type="line"/>
      <point x="506" y="108"/>
      <point x="404" y="186"/>
      <point x="260" y="186" type="curve" smooth="yes"/>
    </contour>
  </outline>
</glyph>
<glyph name="aiMatra_reph_anusvara-deva" format="1">
  <advance width="540"/>
  <outline>
    <component base="aiMatra-deva"/>
    <component base="reph_anusvara-deva" xOffset="67" yOffset="-11"/>
    <contour>
      <point x="251" y="1167" type="move" name="_top"/>
    </contour>
  </outline>
</glyph>
<glyph name="anusvara-deva.001" format="1">
  <advance width="540"/>
  <outline>
    <contour>
      <point x="329" y="1621"/>
      <point x="297" y="1590"/>
      <point x="297" y="1517" type="curve" smooth="yes"/>
      <point x="297" y="1445"/>
      <point x="329" y="1414"/>
      <point x="402" y="1414" type="curve" smooth="yes"/>
      <point x="476" y="1414"/>
      <point x="507" y="1445"/>
      <point x="507" y="1517" type="curve" smooth="yes"/>
      <point x="507" y="1590"/>
      <point x="476" y="1621"/>
      <point x="402" y="1621" type="curve" smooth="yes"/>
    </contour>
    <contour>
      <point x="268" y="1167" type="move" name="_top"/>
    </contour>
  </outline>
</glyph>
<glyph name="anusvara_eMatra-deva" format="1">
  <advance width="540"/>
  <outline>
    <contour>
      <point x="353" y="1642"/>
      <point x="321" y="1611"/>
      <point x="321" y="1537" type="curve" smooth="yes"/>
      <point x="321" y="1465"/>
      <point x="353" y="1434"/>
      <point x="426" y="1434" type="curve" smooth="yes"/>
      <point x="500" y="1434"/>
      <point x="531" y="1465"/>
      <point x="531" y="1537" type="curve" smooth="yes"/>
      <point x="531" y="1611"/>
      <point x="500" y="1642"/>
      <point x="426" y="1642" type="curve" smooth="yes"/>
    </contour>
  </outline>
</glyph>
<glyph name="ca_ra-deva" format="1">
  <advance width="1261"/>
  <outline>
    <contour>
      <point x="210" y="22" type="line"/>
      <point x="326" y="-128" type="line"/>
      <point x="950" y="339" type="line"/>
      <point x="874" y="455" type="line"/>
    </contour>
    <component base="ca-deva"/>
    <contour>
      <point x="985" y="1167" type="move" name="top"/>
    </contour>
    <contour>
      <point x="986" y="27" type="move" name="bottom"/>
    </contour>
  </outline>
</glyph>
<glyph name="d-deva" format="1">
  <advance width="1033"/>
  <outline>
    <component base="da-deva"/>
    <component base="halant-deva" xOffset="419" yOffset="-44"/>
    <contour>
      <point x="46" y="106" type="move" name="top"/>
    </contour>
    <contour>
      <point x="46" y="3" type="move" name="bottom"/>
    </contour>
  </outline>
</glyph>
<glyph name="d_ba-deva" format="1">
  <advance width="1011"/>
  <outline>
    <contour>
      <point x="-19" y="1287" type="line"/>
      <point x="-19" y="1104" type="line"/>
      <point x="1030" y="1104" type="line"/>
      <point x="1030" y="1287" type="line"/>
    </contour>
    <contour>
      <point x="614" y="1134" type="line"/>
      <point x="614" y="840" type="line"/>
      <point x="755" y="870" type="line"/>
      <point x="667" y="899"/>
      <point x="597" y="908"/>
      <point x="543" y="908" type="curve" smooth="yes"/>
      <point x="200" y="908"/>
      <point x="62" y="745"/>
      <point x="62" y="502" type="curve" smooth="yes"/>
      <point x="62" y="248"/>
      <point x="217" y="68"/>
      <point x="557" y="68" type="curve" smooth="yes"/>
      <point x="663" y="68"/>
      <point x="748" y="78"/>
      <point x="833" y="134" type="curve" smooth="yes"/>
      <point x="891" y="174"/>
      <point x="932" y="259"/>
      <point x="932" y="323" type="curve" smooth="yes"/>
      <point x="932" y="432"/>
      <point x="827" y="508"/>
      <point x="713" y="537" type="curve"/>
      <point x="598" y="450" type="line"/>
      <point x="701" y="231" type="line"/>
      <point x="799" y="326" type="line"/>
      <point x="700" y="260"/>
      <point x="653" y="233"/>
      <point x="539" y="233" type="curve" smooth="yes"/>
      <point x="367" y="233"/>
      <point x="280" y="296"/>
      <point x="280" y="474" type="curve" smooth="yes"/>
      <point x="280" y="681"/>
      <point x="396" y="721"/>
      <point x="601" y="721" type="curve" smooth="yes"/>
      <point x="709" y="721"/>
      <point x="762" y="717"/>
      <point x="825" y="713" type="curve"/>
      <point x="825" y="1134" type="line"/>
    </contour>
    <contour>
      <point x="702" y="-96"/>
      <point x="572" y="-260"/>
      <point x="406" y="-260" type="curve" smooth="yes"/>
      <point x="330" y="-260"/>
      <point x="270" y="-221"/>
      <point x="270" y="-143" type="curve" smooth="yes"/>
      <point x="270" y="-35"/>
      <point x="380" y="37"/>
      <point x="460" y="79" type="curve"/>
      <point x="411" y="218" type="line"/>
      <point x="300" y="165"/>
      <point x="82" y="64"/>
      <point x="82" y="-138" type="curve" smooth="yes"/>
      <point x="82" y="-319"/>
      <point x="228" y="-422"/>
      <point x="418" y="-422" type="curve" smooth="yes"/>
      <point x="787" y="-422"/>
      <point x="872" y="-24"/>
      <point x="847" y="210" type="curve"/>
      <point x="722" y="274" type="line"/>
    </contour>
    <contour>
      <point x="271" y="32" type="line"/>
      <point x="651" y="-346" type="line"/>
      <point x="753" y="-237" type="line"/>
      <point x="373" y="141" type="line"/>
    </contour>
    <contour>
      <point x="741" y="216" type="line"/>
      <point x="932" y="-171" type="line"/>
      <point x="1079" y="-73" type="line"/>
      <point x="848" y="272" type="line"/>
    </contour>
    <contour>
      <point x="719" y="1167" type="move" name="top"/>
    </contour>
    <contour>
      <point x="960" y="-108" type="move" name="bottom"/>
    </contour>
  </outline>
</glyph>
<glyph name="d_dh_r_ya-deva" format="1">
  <advance width="2425"/>
  <outline>
    <contour>
      <point x="897" y="1134" type="line"/>
      <point x="897" y="840" type="line"/>
      <point x="1038" y="870" type="line"/>
      <point x="950" y="899"/>
      <point x="880" y="908"/>
      <point x="826" y="908" type="curve" smooth="yes"/>
      <point x="483" y="908"/>
      <point x="345" y="745"/>
      <point x="345" y="502" type="curve" smooth="yes"/>
      <point x="345" y="248"/>
      <point x="500" y="58"/>
      <point x="840" y="58" type="curve" smooth="yes"/>
      <point x="946" y="58"/>
      <point x="1031" y="78"/>
      <point x="1116" y="134" type="curve" smooth="yes"/>
      <point x="1174" y="174"/>
      <point x="1215" y="259"/>
      <point x="1215" y="323" type="curve" smooth="yes"/>
      <point x="1215" y="432"/>
      <point x="1110" y="508"/>
      <point x="996" y="537" type="curve"/>
      <point x="881" y="450" type="line"/>
      <point x="984" y="231" type="line"/>
      <point x="1082" y="326" type="line"/>
      <point x="983" y="260"/>
      <point x="936" y="233"/>
      <point x="822" y="233" type="curve" smooth="yes"/>
      <point x="650" y="233"/>
      <point x="563" y="296"/>
      <point x="563" y="474" type="curve" smooth="yes"/>
      <point x="563" y="681"/>
      <point x="679" y="721"/>
      <point x="884" y="721" type="curve" smooth="yes"/>
      <point x="992" y="721"/>
      <point x="1047" y="723"/>
      <point x="1108" y="723" type="curve"/>
      <point x="1108" y="1134" type="line"/>
    </contour>
    <contour>
      <point x="210" y="479"/>
      <point x="49" y="352"/>
      <point x="48" y="181" type="curve" smooth="yes"/>
      <point x="48" y="13"/>
      <point x="157" y="-81"/>
      <point x="329" y="-92" type="curve" smooth="yes"/>
      <point x="372" y="-95"/>
      <point x="420" y="-89"/>
      <point x="470" y="-80" type="curve"/>
      <point x="530" y="30" type="line"/>
      <point x="460" y="31"/>
      <point x="394" y="36"/>
      <point x="348" y="49" type="curve" smooth="yes"/>
      <point x="271" y="69"/>
      <point x="238" y="115"/>
      <point x="238" y="173" type="curve" smooth="yes"/>
      <point x="237" y="247"/>
      <point x="294" y="310"/>
      <point x="411" y="358" type="curve"/>
      <point x="362" y="517" type="line"/>
    </contour>
    <contour>
      <point x="980" y="-91"/>
      <point x="856" y="-247"/>
      <point x="694" y="-247" type="curve" smooth="yes"/>
      <point x="629" y="-247"/>
      <point x="572" y="-209"/>
      <point x="572" y="-136" type="curve" smooth="yes"/>
      <point x="572" y="-33"/>
      <point x="675" y="35"/>
      <point x="752" y="74" type="curve"/>
      <point x="701" y="215" type="line"/>
      <point x="591" y="163"/>
      <point x="376" y="63"/>
      <point x="376" y="-137" type="curve" smooth="yes"/>
      <point x="376" y="-317"/>
      <point x="520" y="-419"/>
      <point x="701" y="-419" type="curve" smooth="yes"/>
      <point x="1074" y="-419"/>
      <point x="1157" y="-27"/>
      <point x="1133" y="207" type="curve"/>
      <point x="999" y="259" type="line"/>
    </contour>
    <contour>
      <point x="866" y="-495" type="line"/>
      <point x="970" y="-630" type="line"/>
      <point x="1419" y="-274" type="line"/>
      <point x="1305" y="-182" type="line"/>
    </contour>
    <contour>
      <point x="1028" y="216" type="line"/>
      <point x="1382" y="-440" type="line"/>
      <point x="1529" y="-342" type="line"/>
      <point x="1135" y="272" type="line"/>
    </contour>
    <contour>
      <point x="1021" y="901" type="line"/>
      <point x="1005" y="722" type="line"/>
      <point x="1449" y="722" type="line" smooth="yes"/>
      <point x="1506" y="722"/>
      <point x="1549" y="713"/>
      <point x="1549" y="681" type="curve" smooth="yes"/>
      <point x="1549" y="632"/>
      <point x="1477" y="591"/>
      <point x="1291" y="546" type="curve"/>
      <point x="1343" y="260"/>
      <point x="1515" y="98"/>
      <point x="1763" y="98" type="curve" smooth="yes"/>
      <point x="1892" y="98"/>
      <point x="1985" y="144"/>
      <point x="2066" y="228" type="curve"/>
      <point x="2078" y="484" type="line"/>
      <point x="1994" y="347"/>
      <point x="1866" y="290"/>
      <point x="1746" y="290" type="curve" smooth="yes"/>
      <point x="1622" y="290"/>
      <point x="1526" y="351"/>
      <point x="1490" y="497" type="curve"/>
      <point x="1473" y="419" type="line"/>
      <point x="1582" y="455"/>
      <point x="1741" y="514"/>
      <point x="1741" y="692" type="curve" smooth="yes"/>
      <point x="1741" y="848"/>
      <point x="1624" y="903"/>
      <point x="1421" y="902" type="curve" smooth="yes"/>
    </contour>
    <contour>
      <point x="-19" y="1287" type="line"/>
      <point x="-19" y="1104" type="line"/>
      <point x="2444" y="1104" type="line"/>
      <point x="2444" y="1287" type="line"/>
    </contour>
    <contour>
      <point x="2039" y="1131" type="line"/>
      <point x="2039" y="0" type="line"/>
      <point x="2249" y="0" type="line"/>
      <point x="2249" y="1131" type="line"/>
    </contour>
    <contour>
      <point x="2144" y="1167" type="move" name="top"/>
    </contour>
    <contour>
      <point x="2144" y="27" type="move" name="bottom"/>
    </contour>
  </outline>
</glyph>
<glyph name="d_dha-deva" format="1">
  <advance width="1300"/>
  <outline>
    <contour>
      <point x="-19" y="1260" type="line"/>
      <point x="-19" y="1077" type="line"/>
      <point x="1337" y="1077" type="line"/>
      <point x="1337" y="1260" type="line"/>
    </contour>
    <contour>
      <point x="902" y="1107" type="line"/>
      <point x="902" y="813" type="line"/>
      <point x="1043" y="843" type="line"/>
      <point x="955" y="872"/>
      <point x="885" y="881"/>
      <point x="831" y="881" type="curve" smooth="yes"/>
      <point x="488" y="881"/>
      <point x="350" y="718"/>
      <point x="350" y="475" type="curve" smooth="yes"/>
      <point x="350" y="221"/>
      <point x="505" y="31"/>
      <point x="845" y="31" type="curve" smooth="yes"/>
      <point x="951" y="31"/>
      <point x="1036" y="51"/>
      <point x="1121" y="107" type="curve" smooth="yes"/>
      <point x="1179" y="147"/>
      <point x="1220" y="232"/>
      <point x="1220" y="296" type="curve" smooth="yes"/>
      <point x="1220" y="405"/>
      <point x="1115" y="481"/>
      <point x="1001" y="510" type="curve"/>
      <point x="886" y="423" type="line"/>
      <point x="989" y="204" type="line"/>
      <point x="1087" y="299" type="line"/>
      <point x="988" y="233"/>
      <point x="941" y="206"/>
      <point x="827" y="206" type="curve" smooth="yes"/>
      <point x="655" y="206"/>
      <point x="568" y="269"/>
      <point x="568" y="447" type="curve" smooth="yes"/>
      <point x="568" y="654"/>
      <point x="684" y="694"/>
      <point x="889" y="694" type="curve" smooth="yes"/>
      <point x="997" y="694"/>
      <point x="1050" y="690"/>
      <point x="1113" y="686" type="curve"/>
      <point x="1113" y="1107" type="line"/>
    </contour>
    <contour>
      <point x="144" y="389"/>
      <point x="54" y="269"/>
      <point x="53" y="154" type="curve" smooth="yes"/>
      <point x="51" y="-14"/>
      <point x="162" y="-108"/>
      <point x="334" y="-119" type="curve" smooth="yes"/>
      <point x="377" y="-122"/>
      <point x="424" y="-116"/>
      <point x="475" y="-107" type="curve"/>
      <point x="534" y="3" type="line"/>
      <point x="464" y="4"/>
      <point x="399" y="9"/>
      <point x="353" y="21" type="curve" smooth="yes"/>
      <point x="276" y="42"/>
      <point x="232" y="102"/>
      <point x="232" y="170" type="curve" smooth="yes"/>
      <point x="232" y="236"/>
      <point x="259" y="285"/>
      <point x="331" y="326" type="curve"/>
      <point x="277" y="428" type="line"/>
    </contour>
    <contour>
      <point x="985" y="-118"/>
      <point x="861" y="-274"/>
      <point x="699" y="-274" type="curve" smooth="yes"/>
      <point x="634" y="-274"/>
      <point x="577" y="-236"/>
      <point x="577" y="-163" type="curve" smooth="yes"/>
      <point x="577" y="-60"/>
      <point x="680" y="7"/>
      <point x="757" y="47" type="curve"/>
      <point x="706" y="188" type="line"/>
      <point x="596" y="136"/>
      <point x="381" y="35"/>
      <point x="381" y="-164" type="curve" smooth="yes"/>
      <point x="381" y="-344"/>
      <point x="525" y="-446"/>
      <point x="706" y="-446" type="curve" smooth="yes"/>
      <point x="1079" y="-446"/>
      <point x="1162" y="-54"/>
      <point x="1138" y="180" type="curve"/>
      <point x="1004" y="232" type="line"/>
    </contour>
    <contour>
      <point x="1033" y="188" type="line"/>
      <point x="1224" y="-198" type="line"/>
      <point x="1371" y="-100" type="line"/>
      <point x="1140" y="245" type="line"/>
    </contour>
    <contour>
      <point x="1004" y="1140" type="move" name="top"/>
    </contour>
    <contour>
      <point x="780" y="-378" type="move" name="bottom"/>
    </contour>
  </outline>
</glyph>
<glyph name="d_va-deva" format="1">
  <advance width="1011"/>
  <outline>
    <contour>
      <point x="-19" y="1287" type="line"/>
      <point x="-19" y="1104" type="line"/>
      <point x="1030" y="1104" type="line"/>
      <point x="1030" y="1287" type="line"/>
    </contour>
    <contour>
      <point x="614" y="1134" type="line"/>
      <point x="614" y="840" type="line"/>
      <point x="755" y="870" type="line"/>
      <point x="667" y="899"/>
      <point x="597" y="908"/>
      <point x="543" y="908" type="curve" smooth="yes"/>
      <point x="200" y="908"/>
      <point x="62" y="745"/>
      <point x="62" y="502" type="curve" smooth="yes"/>
      <point x="62" y="248"/>
      <point x="217" y="58"/>
      <point x="557" y="58" type="curve" smooth="yes"/>
      <point x="663" y="58"/>
      <point x="748" y="78"/>
      <point x="833" y="134" type="curve" smooth="yes"/>
      <point x="891" y="174"/>
      <point x="932" y="259"/>
      <point x="932" y="323" type="curve" smooth="yes"/>
      <point x="932" y="432"/>
      <point x="827" y="508"/>
      <point x="713" y="537" type="curve"/>
      <point x="598" y="450" type="line"/>
      <point x="701" y="231" type="line"/>
      <point x="799" y="326" type="line"/>
      <point x="700" y="260"/>
      <point x="653" y="233"/>
      <point x="539" y="233" type="curve" smooth="yes"/>
      <point x="367" y="233"/>
      <point x="280" y="296"/>
      <point x="280" y="474" type="curve" smooth="yes"/>
      <point x="280" y="681"/>
      <point x="396" y="721"/>
      <point x="601" y="721" type="curve" smooth="yes"/>
      <point x="709" y="721"/>
      <point x="762" y="717"/>
      <point x="825" y="713" type="curve"/>
      <point x="825" y="1134" type="line"/>
    </contour>
    <contour>
      <point x="693" y="-89"/>
      <point x="573" y="-242"/>
      <point x="419" y="-242" type="curve" smooth="yes"/>
      <point x="348" y="-242"/>
      <point x="292" y="-206"/>
      <point x="292" y="-133" type="curve" smooth="yes"/>
      <point x="292" y="-32"/>
      <point x="394" y="35"/>
      <point x="470" y="73" type="curve"/>
      <point x="418" y="215" type="line"/>
      <point x="308" y="163"/>
      <point x="93" y="63"/>
      <point x="93" y="-137" type="curve" smooth="yes"/>
      <point x="93" y="-317"/>
      <point x="237" y="-419"/>
      <point x="424" y="-419" type="curve" smooth="yes"/>
      <point x="790" y="-419"/>
      <point x="874" y="-24"/>
      <point x="850" y="207" type="curve"/>
      <point x="713" y="254" type="line"/>
    </contour>
    <contour>
      <point x="745" y="216" type="line"/>
      <point x="936" y="-171" type="line"/>
      <point x="1083" y="-73" type="line"/>
      <point x="852" y="272" type="line"/>
    </contour>
    <contour>
      <point x="724" y="1167" type="move" name="top"/>
    </contour>
    <contour>
      <point x="959" y="-123" type="move" name="bottom"/>
    </contour>
  </outline>
</glyph>
<glyph name="dd-deva" format="1">
  <advance width="1056"/>
  <outline>
    <component base="dda-deva"/>
    <component base="halant-deva" xOffset="416" yOffset="-64"/>
    <contour>
      <point x="43" y="106" type="move" name="top"/>
    </contour>
    <contour>
      <point x="43" y="3" type="move" name="bottom"/>
    </contour>
  </outline>
</glyph>
<glyph name="five-deva.np" format="1">
  <advance width="854"/>
  <outline>
    <contour>
      <point x="271" y="990"/>
      <point x="78" y="721"/>
      <point x="78" y="466" type="curve" smooth="yes"/>
      <point x="78" y="279"/>
      <point x="173" y="40"/>
      <point x="505" y="37" type="curve" smooth="yes"/>
      <point x="639" y="36"/>
      <point x="767" y="73"/>
      <point x="839" y="117" type="curve"/>
      <point x="785" y="285" type="line"/>
      <point x="685" y="248"/>
      <point x="596" y="229"/>
      <point x="518" y="230" type="curve" smooth="yes"/>
      <point x="399" y="232"/>
      <point x="290" y="275"/>
      <point x="290" y="473" type="curve" smooth="yes"/>
      <point x="290" y="713"/>
      <point x="495" y="918"/>
      <point x="746" y="1180" type="curve"/>
      <point x="532" y="1230" type="line"/>
    </contour>
    <contour>
      <point x="54" y="1287" type="line"/>
      <point x="54" y="1104" type="line"/>
      <point x="852" y="1104" type="line"/>
      <point x="852" y="1287" type="line"/>
    </contour>
  </outline>
</glyph>
<glyph name="ja_ra-deva" format="1">
  <advance width="1421"/>
  <outline>
    <contour>
      <point x="53" y="550"/>
      <point x="205" y="257"/>
      <point x="540" y="257" type="curve" smooth="yes"/>
      <point x="728" y="257"/>
      <point x="857" y="375"/>
      <point x="857" y="525" type="curve" smooth="yes"/>
      <point x="857" y="643"/>
      <point x="784" y="732"/>
      <point x="641" y="805" type="curve"/>
      <point x="567" y="946" type="line"/>
      <point x="493" y="793" type="line"/>
      <point x="605" y="742"/>
      <point x="653" y="667"/>
      <point x="653" y="582" type="curve" smooth="yes"/>
      <point x="653" y="499"/>
      <point x="611" y="455"/>
      <point x="521" y="454" type="curve" smooth="yes"/>
      <point x="266" y="448"/>
      <point x="223" y="792"/>
      <point x="207" y="930" type="curve"/>
      <point x="42" y="908" type="line"/>
    </contour>
    <contour>
      <point x="615" y="92" type="line"/>
      <point x="741" y="-48" type="line"/>
      <point x="1243" y="362" type="line"/>
      <point x="1109" y="457" type="line"/>
    </contour>
    <contour>
      <point x="629" y="755" type="line"/>
      <point x="809" y="714"/>
      <point x="991" y="647"/>
      <point x="1162" y="507" type="curve"/>
      <point x="1166" y="730" type="line"/>
      <point x="991" y="844"/>
      <point x="776" y="899"/>
      <point x="568" y="946" type="curve"/>
    </contour>
    <contour>
      <point x="1036" y="1199" type="line"/>
      <point x="1036" y="0" type="line"/>
      <point x="1246" y="0" type="line"/>
      <point x="1246" y="1199" type="line"/>
    </contour>
    <contour>
      <point x="-20" y="1287" type="line"/>
      <point x="-20" y="1104" type="line"/>
      <point x="1441" y="1104" type="line"/>
      <point x="1441" y="1287" type="line"/>
    </contour>
    <contour>
      <point x="1141" y="1167" type="move" name="top"/>
    </contour>
    <contour>
      <point x="1141" y="27" type="move" name="bottom"/>
    </contour>
    <contour>
      <point x="671" y="1167" type="move" name="topcandrabindu"/>
    </contour>
  </outline>
</glyph>
<glyph name="jh-deva" format="1">
  <advance width="1068"/>
  <outline>
    <contour>
      <point x="1150" y="547"/>
      <point x="1026" y="508"/>
      <point x="827" y="504" type="curve"/>
      <point x="902" y="362" type="line"/>
      <point x="1043" y="341"/>
      <point x="1195" y="373"/>
      <point x="1337" y="467" type="curve"/>
      <point x="1305" y="651" type="line"/>
    </contour>
    <contour>
      <point x="898" y="1287" type="line"/>
      <point x="898" y="1104" type="line"/>
      <point x="1085" y="1104" type="line"/>
      <point x="1085" y="1287" type="line"/>
    </contour>
    <component base="i-deva"/>
    <contour>
      <point x="46" y="106" type="move" name="top"/>
    </contour>
    <contour>
      <point x="46" y="3" type="move" name="bottom"/>
    </contour>
  </outline>
</glyph>
<glyph name="m-deva" format="1">
  <advance width="597"/>
  <outline>
    <contour>
      <point x="232" y="659" type="line"/>
      <point x="45" y="635" type="line"/>
      <point x="45" y="492" type="line"/>
      <point x="230" y="286" type="line"/>
      <point x="370" y="287"/>
      <point x="398" y="354"/>
      <point x="398" y="435" type="curve" smooth="yes"/>
      <point x="398" y="659" type="line"/>
    </contour>
    <contour>
      <point x="187" y="1152" type="line"/>
      <point x="187" y="382" type="line"/>
      <point x="396" y="572" type="line"/>
      <point x="397" y="1152" type="line"/>
    </contour>
    <contour>
      <point x="193" y="655" type="line"/>
      <point x="193" y="469" type="line"/>
      <point x="849" y="469" type="line"/>
      <point x="849" y="655" type="line"/>
    </contour>
    <contour>
      <point x="-19" y="1287" type="line"/>
      <point x="-19" y="1104" type="line"/>
      <point x="617" y="1104" type="line"/>
      <point x="617" y="1287" type="line"/>
    </contour>
    <contour>
      <point x="26" y="106" type="move" name="top"/>
    </contour>
    <contour>
      <point x="26" y="3" type="move" name="bottom"/>
    </contour>
  </outline>
</glyph>
<glyph name="n-deva" format="1">
  <advance width="574"/>
  <outline>
    <contour>
      <point x="45" y="775" type="line"/>
      <point x="45" y="611" type="line"/>
      <point x="199" y="387" type="line"/>
      <point x="346" y="387"/>
      <point x="369" y="468"/>
      <point x="369" y="568" type="curve" smooth="yes"/>
      <point x="369" y="775" type="line"/>
    </contour>
    <contour>
      <point x="170" y="775" type="line"/>
      <point x="170" y="589" type="line"/>
      <point x="797" y="589" type="line"/>
      <point x="797" y="775" type="line"/>
    </contour>
    <contour>
      <point x="-19" y="1287" type="line"/>
      <point x="-19" y="1104" type="line"/>
      <point x="596" y="1104" type="line"/>
      <point x="596" y="1287" type="line"/>
    </contour>
    <contour>
      <point x="27" y="106" type="move" name="top"/>
    </contour>
    <contour>
      <point x="27" y="3" type="move" name="bottom"/>
    </contour>
  </outline>
</glyph>
<glyph name="ng_ga-deva" format="1">
  <advance width="1220"/>
  <outline>
    <contour>
      <point x="432" y="972" type="line" smooth="yes"/>
      <point x="244" y="972"/>
      <point x="160" y="910"/>
      <point x="160" y="776" type="curve" smooth="yes"/>
      <point x="160" y="662"/>
      <point x="220" y="544"/>
      <point x="288" y="487" type="curve"/>
      <point x="321" y="461"/>
      <point x="342" y="457"/>
      <point x="367" y="459" type="curve" smooth="yes"/>
      <point x="413" y="463"/>
      <point x="566" y="481"/>
      <point x="671" y="481" type="curve" smooth="yes"/>
      <point x="781" y="481"/>
      <point x="807" y="461"/>
      <point x="807" y="405" type="curve" smooth="yes"/>
      <point x="807" y="326"/>
      <point x="756" y="290"/>
      <point x="585" y="290" type="curve" smooth="yes"/>
      <point x="386" y="290"/>
      <point x="298" y="339"/>
      <point x="184" y="455" type="curve"/>
      <point x="80" y="353" type="line"/>
      <point x="223" y="182"/>
      <point x="397" y="118"/>
      <point x="595" y="117" type="curve" smooth="yes"/>
      <point x="808" y="117"/>
      <point x="1001" y="191"/>
      <point x="1001" y="423" type="curve" smooth="yes"/>
      <point x="1001" y="634"/>
      <point x="841" y="661"/>
      <point x="645" y="659" type="curve" smooth="yes"/>
      <point x="537" y="657"/>
      <point x="441" y="648"/>
      <point x="346" y="632" type="curve"/>
      <point x="365" y="619" type="line"/>
      <point x="358" y="621"/>
      <point x="341" y="670"/>
      <point x="341" y="717" type="curve" smooth="yes"/>
      <point x="341" y="778"/>
      <point x="370" y="794"/>
      <point x="488" y="794" type="curve" smooth="yes"/>
      <point x="814" y="794" type="line"/>
      <point x="791" y="972" type="line"/>
    </contour>
    <contour>
      <point x="327" y="8" type="line"/>
      <point x="152" y="-14" type="line"/>
      <point x="152" y="-149" type="line"/>
      <point x="325" y="-340" type="line"/>
      <point x="465" y="-339"/>
      <point x="484" y="-273"/>
      <point x="484" y="-213" type="curve" smooth="yes"/>
      <point x="484" y="8" type="line"/>
    </contour>
    <contour>
      <point x="288" y="253" type="line"/>
      <point x="288" y="-64" type="line"/>
      <point x="484" y="-70" type="line"/>
      <point x="484" y="253" type="line"/>
    </contour>
    <contour>
      <point x="683" y="237" type="line"/>
      <point x="683" y="-501" type="line"/>
      <point x="884" y="-501" type="line"/>
      <point x="884" y="237" type="line"/>
    </contour>
    <contour>
      <point x="-19" y="1286" type="line"/>
      <point x="-19" y="1104" type="line"/>
      <point x="1239" y="1104" type="line"/>
      <point x="1239" y="1286" type="line"/>
    </contour>
    <contour>
      <point x="685" y="1232" type="line"/>
      <point x="685" y="794" type="line"/>
      <point x="892" y="794" type="line"/>
      <point x="892" y="1232" type="line"/>
    </contour>
    <contour>
      <point x="997" y="812"/>
      <point x="965" y="781"/>
      <point x="965" y="707" type="curve" smooth="yes"/>
      <point x="965" y="635"/>
      <point x="997" y="604"/>
      <point x="1070" y="604" type="curve" smooth="yes"/>
      <point x="1144" y="604"/>
      <point x="1175" y="635"/>
      <point x="1175" y="707" type="curve" smooth="yes"/>
      <point x="1175" y="781"/>
      <point x="1144" y="812"/>
      <point x="1070" y="812" type="curve" smooth="yes"/>
    </contour>
    <contour>
      <point x="788" y="1167" type="move" name="top"/>
    </contour>
    <contour>
      <point x="783" y="-469" type="move" name="bottom"/>
    </contour>
    <contour>
      <point x="605" y="1167" type="move" name="topcandrabindu"/>
    </contour>
  </outline>
</glyph>
<glyph name="ng_gha-deva" format="1">
  <advance width="1226"/>
  <outline>
    <contour>
      <point x="430" y="972" type="line" smooth="yes"/>
      <point x="242" y="972"/>
      <point x="158" y="910"/>
      <point x="158" y="776" type="curve" smooth="yes"/>
      <point x="158" y="662"/>
      <point x="218" y="544"/>
      <point x="286" y="487" type="curve"/>
      <point x="320" y="459"/>
      <point x="345" y="457"/>
      <point x="365" y="459" type="curve" smooth="yes"/>
      <point x="431" y="465"/>
      <point x="564" y="481"/>
      <point x="675" y="481" type="curve" smooth="yes"/>
      <point x="786" y="481"/>
      <point x="805" y="459"/>
      <point x="805" y="399" type="curve" smooth="yes"/>
      <point x="805" y="326"/>
      <point x="747" y="290"/>
      <point x="586" y="290" type="curve" smooth="yes"/>
      <point x="386" y="290"/>
      <point x="299" y="337"/>
      <point x="182" y="455" type="curve"/>
      <point x="78" y="353" type="line"/>
      <point x="212" y="189"/>
      <point x="398" y="117"/>
      <point x="576" y="117" type="curve" smooth="yes"/>
      <point x="812" y="117"/>
      <point x="999" y="191"/>
      <point x="999" y="421" type="curve" smooth="yes"/>
      <point x="999" y="637"/>
      <point x="838" y="661"/>
      <point x="643" y="659" type="curve" smooth="yes"/>
      <point x="537" y="658"/>
      <point x="419" y="645"/>
      <point x="344" y="632" type="curve"/>
      <point x="363" y="619" type="line"/>
      <point x="356" y="621"/>
      <point x="339" y="671"/>
      <point x="339" y="715" type="curve" smooth="yes"/>
      <point x="339" y="778"/>
      <point x="366" y="794"/>
      <point x="486" y="794" type="curve" smooth="yes"/>
      <point x="812" y="794" type="line"/>
      <point x="789" y="972" type="line"/>
    </contour>
    <contour>
      <point x="244" y="-84"/>
      <point x="155" y="-213"/>
      <point x="155" y="-352" type="curve" smooth="yes"/>
      <point x="155" y="-504"/>
      <point x="264" y="-610"/>
      <point x="463" y="-610" type="curve" smooth="yes"/>
      <point x="634" y="-610"/>
      <point x="760" y="-545"/>
      <point x="837" y="-456" type="curve"/>
      <point x="811" y="-258" type="line"/>
      <point x="739" y="-363"/>
      <point x="612" y="-445"/>
      <point x="476" y="-445" type="curve" smooth="yes"/>
      <point x="392" y="-445"/>
      <point x="349" y="-413"/>
      <point x="349" y="-350" type="curve" smooth="yes"/>
      <point x="349" y="-273"/>
      <point x="414" y="-248"/>
      <point x="538" y="-237" type="curve"/>
      <point x="532" y="-81" type="line"/>
    </contour>
    <contour>
      <point x="316" y="246"/>
      <point x="114" y="215"/>
      <point x="114" y="37" type="curve" smooth="yes"/>
      <point x="114" y="-64"/>
      <point x="177" y="-138"/>
      <point x="371" y="-220" type="curve"/>
      <point x="463" y="-145" type="line"/>
      <point x="398" y="-111"/>
      <point x="315" y="-79"/>
      <point x="315" y="24" type="curve" smooth="yes"/>
      <point x="315" y="93"/>
      <point x="363" y="126"/>
      <point x="468" y="135" type="curve"/>
      <point x="482" y="254" type="line"/>
    </contour>
    <contour>
      <point x="720" y="257" type="line"/>
      <point x="720" y="-720" type="line"/>
      <point x="921" y="-720" type="line"/>
      <point x="921" y="257" type="line"/>
    </contour>
    <contour>
      <point x="-19" y="1286" type="line"/>
      <point x="-19" y="1104" type="line"/>
      <point x="1245" y="1104" type="line"/>
      <point x="1245" y="1286" type="line"/>
    </contour>
    <contour>
      <point x="683" y="1232" type="line"/>
      <point x="683" y="794" type="line"/>
      <point x="890" y="794" type="line"/>
      <point x="890" y="1232" type="line"/>
    </contour>
    <contour>
      <point x="997" y="812"/>
      <point x="965" y="781"/>
      <point x="965" y="707" type="curve" smooth="yes"/>
      <point x="965" y="635"/>
      <point x="997" y="604"/>
      <point x="1070" y="604" type="curve" smooth="yes"/>
      <point x="1144" y="604"/>
      <point x="1175" y="635"/>
      <point x="1175" y="707" type="curve" smooth="yes"/>
      <point x="1175" y="781"/>
      <point x="1144" y="812"/>
      <point x="1070" y="812" type="curve" smooth="yes"/>
    </contour>
    <contour>
      <point x="789" y="1167" type="move" name="top"/>
    </contour>
    <contour>
      <point x="859" y="-697" type="move" name="bottom"/>
    </contour>
    <contour>
      <point x="605" y="1167" type="move" name="topcandrabindu"/>
    </contour>
  </outline>
</glyph>
<glyph name="ng_k_ssa-deva" format="1">
  <advance width="1218"/>
  <outline>
    <contour>
      <point x="430" y="972" type="line" smooth="yes"/>
      <point x="242" y="972"/>
      <point x="158" y="910"/>
      <point x="158" y="776" type="curve" smooth="yes"/>
      <point x="158" y="662"/>
      <point x="218" y="544"/>
      <point x="286" y="487" type="curve"/>
      <point x="320" y="459"/>
      <point x="345" y="457"/>
      <point x="365" y="459" type="curve" smooth="yes"/>
      <point x="431" y="465"/>
      <point x="564" y="481"/>
      <point x="675" y="481" type="curve" smooth="yes"/>
      <point x="786" y="481"/>
      <point x="805" y="459"/>
      <point x="805" y="399" type="curve" smooth="yes"/>
      <point x="805" y="326"/>
      <point x="747" y="290"/>
      <point x="586" y="290" type="curve" smooth="yes"/>
      <point x="385" y="290"/>
      <point x="299" y="337"/>
      <point x="182" y="455" type="curve"/>
      <point x="78" y="353" type="line"/>
      <point x="212" y="189"/>
      <point x="397" y="118"/>
      <point x="576" y="117" type="curve" smooth="yes"/>
      <point x="812" y="117"/>
      <point x="999" y="191"/>
      <point x="999" y="421" type="curve" smooth="yes"/>
      <point x="999" y="637"/>
      <point x="838" y="661"/>
      <point x="643" y="659" type="curve" smooth="yes"/>
      <point x="537" y="658"/>
      <point x="419" y="645"/>
      <point x="344" y="632" type="curve"/>
      <point x="363" y="619" type="line"/>
      <point x="356" y="621"/>
      <point x="339" y="671"/>
      <point x="339" y="715" type="curve" smooth="yes"/>
      <point x="339" y="778"/>
      <point x="366" y="794"/>
      <point x="486" y="794" type="curve" smooth="yes"/>
      <point x="812" y="794" type="line"/>
      <point x="789" y="972" type="line"/>
    </contour>
    <contour>
      <point x="413" y="-553" type="line"/>
      <point x="557" y="-793" type="line"/>
      <point x="675" y="-721" type="line"/>
      <point x="537" y="-532" type="line"/>
    </contour>
    <contour>
      <point x="336" y="-417" type="line"/>
      <point x="423" y="-569" type="line"/>
      <point x="488" y="-639" type="line"/>
      <point x="557" y="-602"/>
      <point x="609" y="-569"/>
      <point x="611" y="-520" type="curve" smooth="yes"/>
      <point x="613" y="-473"/>
      <point x="548" y="-382"/>
      <point x="438" y="-351" type="curve"/>
    </contour>
    <contour>
      <point x="206" y="270"/>
      <point x="107" y="198"/>
      <point x="107" y="62" type="curve" smooth="yes"/>
      <point x="107" y="-10"/>
      <point x="148" y="-94"/>
      <point x="256" y="-170" type="curve"/>
      <point x="393" y="-86" type="line"/>
      <point x="294" y="-26"/>
      <point x="276" y="24"/>
      <point x="276" y="60" type="curve" smooth="yes"/>
      <point x="276" y="114"/>
      <point x="313" y="143"/>
      <point x="373" y="143" type="curve" smooth="yes"/>
      <point x="421" y="143"/>
      <point x="452" y="118"/>
      <point x="452" y="52" type="curve" smooth="yes"/>
      <point x="452" y="-13"/>
      <point x="421" y="-35"/>
      <point x="325" y="-91" type="curve" smooth="yes"/>
      <point x="134" y="-204"/>
      <point x="57" y="-257"/>
      <point x="57" y="-400" type="curve" smooth="yes"/>
      <point x="57" y="-596"/>
      <point x="223" y="-669"/>
      <point x="361" y="-669" type="curve" smooth="yes"/>
      <point x="436" y="-669"/>
      <point x="522" y="-647"/>
      <point x="559" y="-601" type="curve"/>
      <point x="502" y="-460" type="line"/>
      <point x="474" y="-501"/>
      <point x="409" y="-523"/>
      <point x="363" y="-523" type="curve" smooth="yes"/>
      <point x="304" y="-523"/>
      <point x="220" y="-489"/>
      <point x="220" y="-407" type="curve" smooth="yes"/>
      <point x="220" y="-324"/>
      <point x="276" y="-298"/>
      <point x="438" y="-195" type="curve" smooth="yes"/>
      <point x="553" y="-123"/>
      <point x="627" y="-54"/>
      <point x="627" y="64" type="curve" smooth="yes"/>
      <point x="627" y="200"/>
      <point x="534" y="270"/>
      <point x="375" y="270" type="curve" smooth="yes"/>
    </contour>
    <contour>
      <point x="321" y="-208" type="line"/>
      <point x="444" y="-294"/>
      <point x="588" y="-322"/>
      <point x="702" y="-322" type="curve" smooth="yes"/>
      <point x="756" y="-322"/>
      <point x="821" y="-312"/>
      <point x="896" y="-299" type="curve"/>
      <point x="888" y="-154" type="line"/>
      <point x="816" y="-168"/>
      <point x="754" y="-176"/>
      <point x="705" y="-176" type="curve" smooth="yes"/>
      <point x="639" y="-176"/>
      <point x="535" y="-157"/>
      <point x="443" y="-109" type="curve"/>
    </contour>
    <contour>
      <point x="787" y="302" type="line"/>
      <point x="787" y="-673" type="line"/>
      <point x="964" y="-673" type="line"/>
      <point x="964" y="302" type="line"/>
    </contour>
    <contour>
      <point x="-19" y="1286" type="line"/>
      <point x="-19" y="1104" type="line"/>
      <point x="1237" y="1104" type="line"/>
      <point x="1237" y="1286" type="line"/>
    </contour>
    <contour>
      <point x="684" y="1232" type="line"/>
      <point x="684" y="794" type="line"/>
      <point x="891" y="794" type="line"/>
      <point x="891" y="1232" type="line"/>
    </contour>
    <contour>
      <point x="982" y="813"/>
      <point x="950" y="782"/>
      <point x="950" y="708" type="curve" smooth="yes"/>
      <point x="950" y="636"/>
      <point x="982" y="605"/>
      <point x="1055" y="605" type="curve" smooth="yes"/>
      <point x="1129" y="605"/>
      <point x="1160" y="636"/>
      <point x="1160" y="708" type="curve" smooth="yes"/>
      <point x="1160" y="782"/>
      <point x="1129" y="813"/>
      <point x="1055" y="813" type="curve" smooth="yes"/>
    </contour>
    <contour>
      <point x="787" y="1167" type="move" name="top"/>
    </contour>
    <contour>
      <point x="883" y="-608" type="move" name="bottom"/>
    </contour>
    <contour>
      <point x="605" y="1167" type="move" name="topcandrabindu"/>
    </contour>
  </outline>
</glyph>
<glyph name="ng_kha-deva" format="1">
  <advance width="1253"/>
  <outline>
    <contour>
      <point x="-19" y="1286" type="line"/>
      <point x="-19" y="1104" type="line"/>
      <point x="1272" y="1104" type="line"/>
      <point x="1272" y="1286" type="line"/>
    </contour>
    <contour>
      <point x="718" y="1232" type="line"/>
      <point x="718" y="794" type="line"/>
      <point x="925" y="794" type="line"/>
      <point x="925" y="1232" type="line"/>
    </contour>
    <contour>
      <point x="465" y="972" type="line" smooth="yes"/>
      <point x="277" y="972"/>
      <point x="193" y="910"/>
      <point x="193" y="776" type="curve" smooth="yes"/>
      <point x="193" y="662"/>
      <point x="253" y="544"/>
      <point x="321" y="487" type="curve"/>
      <point x="355" y="459"/>
      <point x="380" y="457"/>
      <point x="400" y="459" type="curve" smooth="yes"/>
      <point x="466" y="465"/>
      <point x="599" y="481"/>
      <point x="710" y="481" type="curve" smooth="yes"/>
      <point x="821" y="481"/>
      <point x="840" y="459"/>
      <point x="840" y="399" type="curve" smooth="yes"/>
      <point x="840" y="326"/>
      <point x="782" y="290"/>
      <point x="621" y="290" type="curve" smooth="yes"/>
      <point x="420" y="290"/>
      <point x="334" y="337"/>
      <point x="217" y="455" type="curve"/>
      <point x="113" y="353" type="line"/>
      <point x="247" y="189"/>
      <point x="432" y="118"/>
      <point x="611" y="117" type="curve" smooth="yes"/>
      <point x="847" y="117"/>
      <point x="1034" y="191"/>
      <point x="1034" y="421" type="curve" smooth="yes"/>
      <point x="1034" y="637"/>
      <point x="873" y="661"/>
      <point x="678" y="659" type="curve" smooth="yes"/>
      <point x="572" y="658"/>
      <point x="454" y="645"/>
      <point x="379" y="632" type="curve"/>
      <point x="398" y="619" type="line"/>
      <point x="391" y="621"/>
      <point x="374" y="671"/>
      <point x="374" y="715" type="curve" smooth="yes"/>
      <point x="374" y="778"/>
      <point x="401" y="794"/>
      <point x="521" y="794" type="curve" smooth="yes"/>
      <point x="847" y="794" type="line"/>
      <point x="824" y="972" type="line"/>
    </contour>
    <contour>
      <point x="826" y="309" type="line"/>
      <point x="826" y="-631" type="line"/>
      <point x="1003" y="-631" type="line"/>
      <point x="1003" y="309" type="line"/>
    </contour>
    <contour>
      <point x="519" y="44"/>
      <point x="421" y="-38"/>
      <point x="421" y="-203" type="curve" smooth="yes"/>
      <point x="421" y="-317"/>
      <point x="473" y="-444"/>
      <point x="652" y="-444" type="curve" smooth="yes"/>
      <point x="761" y="-444"/>
      <point x="857" y="-398"/>
      <point x="909" y="-313" type="curve"/>
      <point x="879" y="-193" type="line"/>
      <point x="824" y="-264"/>
      <point x="755" y="-305"/>
      <point x="675" y="-305" type="curve" smooth="yes"/>
      <point x="621" y="-305"/>
      <point x="584" y="-278"/>
      <point x="584" y="-206" type="curve" smooth="yes"/>
      <point x="584" y="-135"/>
      <point x="624" y="-101"/>
      <point x="699" y="-99" type="curve" smooth="yes"/>
      <point x="754" y="-97"/>
      <point x="837" y="-110"/>
      <point x="913" y="-126" type="curve"/>
      <point x="908" y="-35" type="line"/>
      <point x="866" y="11"/>
      <point x="780" y="44"/>
      <point x="672" y="44" type="curve" smooth="yes"/>
    </contour>
    <contour>
      <point x="221" y="276" type="line"/>
      <point x="221" y="-22" type="line" smooth="yes"/>
      <point x="221" y="-80"/>
      <point x="202" y="-112"/>
      <point x="161" y="-112" type="curve" smooth="yes"/>
      <point x="134" y="-112"/>
      <point x="109" y="-102"/>
      <point x="77" y="-75" type="curve"/>
      <point x="-30" y="-150" type="line"/>
      <point x="125" y="-545"/>
      <point x="349" y="-687"/>
      <point x="625" y="-687" type="curve" smooth="yes"/>
      <point x="677" y="-687"/>
      <point x="709" y="-684"/>
      <point x="765" y="-663" type="curve"/>
      <point x="735" y="-524" type="line"/>
      <point x="683" y="-536"/>
      <point x="662" y="-540"/>
      <point x="618" y="-540" type="curve" smooth="yes"/>
      <point x="441" y="-540"/>
      <point x="253" y="-441"/>
      <point x="171" y="-207" type="curve"/>
      <point x="155" y="-237" type="line"/>
      <point x="169" y="-243"/>
      <point x="191" y="-255"/>
      <point x="227" y="-255" type="curve" smooth="yes"/>
      <point x="298" y="-255"/>
      <point x="397" y="-217"/>
      <point x="397" y="-35" type="curve" smooth="yes"/>
      <point x="397" y="276" type="line"/>
    </contour>
    <contour>
      <point x="1024" y="812"/>
      <point x="992" y="781"/>
      <point x="992" y="708" type="curve" smooth="yes"/>
      <point x="992" y="636"/>
      <point x="1024" y="605"/>
      <point x="1097" y="605" type="curve" smooth="yes"/>
      <point x="1171" y="605"/>
      <point x="1202" y="636"/>
      <point x="1202" y="708" type="curve" smooth="yes"/>
      <point x="1202" y="781"/>
      <point x="1171" y="812"/>
      <point x="1097" y="812" type="curve" smooth="yes"/>
    </contour>
    <contour>
      <point x="821" y="1167" type="move" name="top"/>
    </contour>
    <contour>
      <point x="916" y="-569" type="move" name="bottom"/>
    </contour>
    <contour>
      <point x="610" y="1167" type="move" name="topcandrabindu"/>
    </contour>
  </outline>
</glyph>
<glyph name="ng_ma-deva" format="1">
  <advance width="1246"/>
  <outline>
    <contour>
      <point x="449" y="972" type="line" smooth="yes"/>
      <point x="261" y="972"/>
      <point x="177" y="910"/>
      <point x="177" y="776" type="curve" smooth="yes"/>
      <point x="177" y="662"/>
      <point x="237" y="544"/>
      <point x="305" y="487" type="curve"/>
      <point x="339" y="459"/>
      <point x="364" y="457"/>
      <point x="384" y="459" type="curve" smooth="yes"/>
      <point x="450" y="465"/>
      <point x="583" y="481"/>
      <point x="694" y="481" type="curve" smooth="yes"/>
      <point x="805" y="481"/>
      <point x="824" y="459"/>
      <point x="824" y="399" type="curve" smooth="yes"/>
      <point x="824" y="326"/>
      <point x="766" y="290"/>
      <point x="605" y="290" type="curve" smooth="yes"/>
      <point x="404" y="290"/>
      <point x="318" y="337"/>
      <point x="201" y="455" type="curve"/>
      <point x="97" y="353" type="line"/>
      <point x="216" y="197"/>
      <point x="401" y="118"/>
      <point x="595" y="117" type="curve" smooth="yes"/>
      <point x="831" y="117"/>
      <point x="1018" y="191"/>
      <point x="1018" y="421" type="curve" smooth="yes"/>
      <point x="1018" y="637"/>
      <point x="857" y="661"/>
      <point x="662" y="659" type="curve" smooth="yes"/>
      <point x="556" y="658"/>
      <point x="438" y="645"/>
      <point x="363" y="632" type="curve"/>
      <point x="382" y="619" type="line"/>
      <point x="375" y="621"/>
      <point x="358" y="671"/>
      <point x="358" y="715" type="curve" smooth="yes"/>
      <point x="358" y="778"/>
      <point x="385" y="794"/>
      <point x="505" y="794" type="curve" smooth="yes"/>
      <point x="831" y="794" type="line"/>
      <point x="808" y="972" type="line"/>
    </contour>
    <contour>
      <point x="-19" y="1286" type="line"/>
      <point x="-19" y="1104" type="line"/>
      <point x="1265" y="1104" type="line"/>
      <point x="1265" y="1286" type="line"/>
    </contour>
    <contour>
      <point x="702" y="1232" type="line"/>
      <point x="702" y="794" type="line"/>
      <point x="909" y="794" type="line"/>
      <point x="909" y="1232" type="line"/>
    </contour>
    <contour>
      <point x="747" y="247" type="line"/>
      <point x="747" y="-580" type="line"/>
      <point x="948" y="-580" type="line"/>
      <point x="948" y="247" type="line"/>
    </contour>
    <contour>
      <point x="307" y="-114" type="line"/>
      <point x="128" y="-136" type="line"/>
      <point x="128" y="-270" type="line"/>
      <point x="302" y="-459" type="line"/>
      <point x="442" y="-458"/>
      <point x="461" y="-391"/>
      <point x="461" y="-310" type="curve" smooth="yes"/>
      <point x="461" y="-114" type="line"/>
    </contour>
    <contour>
      <point x="263" y="247" type="line"/>
      <point x="263" y="-364" type="line"/>
      <point x="459" y="-200" type="line"/>
      <point x="460" y="247" type="line"/>
    </contour>
    <contour>
      <point x="260" y="-117" type="line"/>
      <point x="260" y="-294" type="line"/>
      <point x="843" y="-294" type="line"/>
      <point x="843" y="-117" type="line"/>
    </contour>
    <contour>
      <point x="1010" y="812"/>
      <point x="978" y="781"/>
      <point x="978" y="707" type="curve" smooth="yes"/>
      <point x="978" y="635"/>
      <point x="1010" y="604"/>
      <point x="1083" y="604" type="curve" smooth="yes"/>
      <point x="1157" y="604"/>
      <point x="1188" y="635"/>
      <point x="1188" y="707" type="curve" smooth="yes"/>
      <point x="1188" y="781"/>
      <point x="1157" y="812"/>
      <point x="1083" y="812" type="curve" smooth="yes"/>
    </contour>
    <contour>
      <point x="807" y="1167" type="move" name="top"/>
    </contour>
    <contour>
      <point x="856" y="-554" type="move" name="bottom"/>
    </contour>
    <contour>
      <point x="605" y="1167" type="move" name="topcandrabindu"/>
    </contour>
  </outline>
</glyph>
<glyph name="p_la-deva" format="1">
  <advance width="1240"/>
  <outline>
    <contour>
      <point x="158" y="1133" type="line"/>
      <point x="158" y="755" type="line" smooth="yes"/>
      <point x="158" y="499"/>
      <point x="283" y="365"/>
      <point x="514" y="365" type="curve" smooth="yes"/>
      <point x="673" y="365"/>
      <point x="813" y="444"/>
      <point x="892" y="561" type="curve"/>
      <point x="846" y="751" type="line"/>
      <point x="772" y="631"/>
      <point x="665" y="556"/>
      <point x="526" y="555" type="curve" smooth="yes"/>
      <point x="405" y="554"/>
      <point x="372" y="609"/>
      <point x="372" y="746" type="curve" smooth="yes"/>
      <point x="372" y="1133" type="line"/>
    </contour>
    <contour>
      <point x="798" y="1199" type="line"/>
      <point x="798" y="123" type="line"/>
      <point x="1009" y="123" type="line"/>
      <point x="1009" y="1199" type="line"/>
    </contour>
    <contour>
      <point x="-19" y="1287" type="line"/>
      <point x="-19" y="1104" type="line"/>
      <point x="1259" y="1104" type="line"/>
      <point x="1259" y="1287" type="line"/>
    </contour>
    <component base="add" xOffset="101"/>
    <contour>
      <point x="902" y="1167" type="move" name="top"/>
    </contour>
    <contour>
      <point x="884" y="-479" type="move" name="bottom"/>
    </contour>
    <contour>
      <point x="586" y="1167" type="move" name="topcandrabindu"/>
    </contour>
  </outline>
</glyph>
<glyph name="r-deva" format="1">
  <advance width="749"/>
  <outline>
    <component base="ra-deva"/>
    <component base="halant-deva" xOffset="373"/>
    <contour>
      <point x="28" y="106" type="move" name="top"/>
    </contour>
    <contour>
      <point x="28" y="3" type="move" name="bottom"/>
    </contour>
  </outline>
</glyph>
<glyph name="sh_ca-deva" format="1">
  <advance width="1407"/>
  <outline>
    <contour>
      <point x="289" y="1319"/>
      <point x="155" y="1218"/>
      <point x="155" y="1035" type="curve" smooth="yes"/>
      <point x="155" y="933"/>
      <point x="195" y="834"/>
      <point x="343" y="731" type="curve"/>
      <point x="527" y="812" type="line"/>
      <point x="391" y="891"/>
      <point x="354" y="958"/>
      <point x="354" y="1023" type="curve" smooth="yes"/>
      <point x="354" y="1099"/>
      <point x="395" y="1145"/>
      <point x="503" y="1145" type="curve" smooth="yes"/>
      <point x="600" y="1145"/>
      <point x="644" y="1100"/>
      <point x="644" y="1023" type="curve" smooth="yes"/>
      <point x="644" y="943"/>
      <point x="595" y="886"/>
      <point x="451" y="797" type="curve"/>
      <point x="41" y="566" type="line"/>
      <point x="134" y="412" type="line"/>
      <point x="596" y="685" type="line"/>
      <point x="748" y="775"/>
      <point x="851" y="878"/>
      <point x="851" y="1035" type="curve" smooth="yes"/>
      <point x="851" y="1228"/>
      <point x="710" y="1319"/>
      <point x="501" y="1319" type="curve" smooth="yes"/>
    </contour>
    <contour>
      <point x="182" y="249" type="line"/>
      <point x="270" y="95" type="line"/>
      <point x="699" y="353" type="line"/>
      <point x="615" y="499" type="line"/>
    </contour>
    <contour>
      <point x="536" y="322" type="line"/>
      <point x="438" y="249"/>
      <point x="393" y="193"/>
      <point x="393" y="102" type="curve" smooth="yes"/>
      <point x="393" y="-47"/>
      <point x="509" y="-139"/>
      <point x="667" y="-139" type="curve" smooth="yes"/>
      <point x="876" y="-139"/>
      <point x="1023" y="-13"/>
      <point x="1122" y="281" type="curve"/>
      <point x="1026" y="439" type="line"/>
      <point x="1013" y="258"/>
      <point x="885" y="53"/>
      <point x="710" y="48" type="curve" smooth="yes"/>
      <point x="629" y="46"/>
      <point x="570" y="79"/>
      <point x="570" y="163" type="curve" smooth="yes"/>
      <point x="570" y="233"/>
      <point x="614" y="292"/>
      <point x="698" y="353" type="curve"/>
      <point x="649" y="399" type="line"/>
    </contour>
    <contour>
      <point x="431" y="673" type="line"/>
      <point x="594" y="570"/>
      <point x="754" y="525"/>
      <point x="919" y="523" type="curve" smooth="yes"/>
      <point x="1001" y="521"/>
      <point x="1078" y="527"/>
      <point x="1193" y="546" type="curve"/>
      <point x="1184" y="720" type="line"/>
      <point x="1105" y="702"/>
      <point x="1019" y="692"/>
      <point x="932" y="694" type="curve" smooth="yes"/>
      <point x="813" y="696"/>
      <point x="692" y="719"/>
      <point x="587" y="773" type="curve"/>
    </contour>
    <contour>
      <point x="1021" y="1208" type="line"/>
      <point x="1021" y="-75" type="line"/>
      <point x="1231" y="-75" type="line"/>
      <point x="1231" y="1208" type="line"/>
    </contour>
    <contour>
      <point x="905" y="1287" type="line"/>
      <point x="905" y="1104" type="line"/>
      <point x="1426" y="1104" type="line"/>
      <point x="1426" y="1287" type="line"/>
    </contour>
    <contour>
      <point x="1126" y="1167" type="move" name="top"/>
    </contour>
    <contour>
      <point x="1124" y="-51" type="move" name="bottom"/>
    </contour>
    <contour>
      <point x="830" y="1167" type="move" name="topcandrabindu"/>
    </contour>
  </outline>
</glyph>
<glyph name="sh_na-deva" format="1">
  <advance width="1407"/>
  <outline>
    <contour>
      <point x="289" y="1319"/>
      <point x="155" y="1218"/>
      <point x="155" y="1035" type="curve" smooth="yes"/>
      <point x="155" y="933"/>
      <point x="195" y="834"/>
      <point x="343" y="731" type="curve"/>
      <point x="527" y="812" type="line"/>
      <point x="391" y="891"/>
      <point x="354" y="958"/>
      <point x="354" y="1023" type="curve" smooth="yes"/>
      <point x="354" y="1099"/>
      <point x="395" y="1145"/>
      <point x="503" y="1145" type="curve" smooth="yes"/>
      <point x="600" y="1145"/>
      <point x="644" y="1100"/>
      <point x="644" y="1023" type="curve" smooth="yes"/>
      <point x="644" y="943"/>
      <point x="595" y="886"/>
      <point x="451" y="797" type="curve"/>
      <point x="41" y="566" type="line"/>
      <point x="134" y="412" type="line"/>
      <point x="596" y="685" type="line"/>
      <point x="748" y="775"/>
      <point x="851" y="878"/>
      <point x="851" y="1035" type="curve" smooth="yes"/>
      <point x="851" y="1228"/>
      <point x="710" y="1319"/>
      <point x="501" y="1319" type="curve" smooth="yes"/>
    </contour>
    <contour>
      <point x="350" y="161" type="line"/>
      <point x="436" y="32" type="line"/>
      <point x="687" y="-70" type="line"/>
      <point x="796" y="2"/>
      <point x="771" y="82"/>
      <point x="716" y="166" type="curve" smooth="yes"/>
      <point x="703" y="186" type="line"/>
      <point x="1108" y="461" type="line"/>
      <point x="1022" y="603" type="line"/>
    </contour>
    <contour>
      <point x="431" y="673" type="line"/>
      <point x="594" y="570"/>
      <point x="754" y="525"/>
      <point x="919" y="523" type="curve" smooth="yes"/>
      <point x="1001" y="521"/>
      <point x="1078" y="527"/>
      <point x="1193" y="546" type="curve"/>
      <point x="1184" y="720" type="line"/>
      <point x="1105" y="702"/>
      <point x="1019" y="692"/>
      <point x="932" y="694" type="curve" smooth="yes"/>
      <point x="813" y="696"/>
      <point x="692" y="719"/>
      <point x="587" y="773" type="curve"/>
    </contour>
    <contour>
      <point x="1021" y="1208" type="line"/>
      <point x="1021" y="0" type="line"/>
      <point x="1231" y="0" type="line"/>
      <point x="1231" y="1208" type="line"/>
    </contour>
    <contour>
      <point x="905" y="1287" type="line"/>
      <point x="905" y="1104" type="line"/>
      <point x="1426" y="1104" type="line"/>
      <point x="1426" y="1287" type="line"/>
    </contour>
    <contour>
      <point x="1127" y="1167" type="move" name="top"/>
    </contour>
    <contour>
      <point x="1126" y="27" type="move" name="bottom"/>
    </contour>
    <contour>
      <point x="830" y="1167" type="move" name="topcandrabindu"/>
    </contour>
  </outline>
</glyph>
<glyph name="sh_va-deva" format="1">
  <advance width="1405"/>
  <outline>
    <contour>
      <point x="410" y="686" type="line"/>
      <point x="513" y="618"/>
      <point x="604" y="547"/>
      <point x="861" y="511" type="curve"/>
      <point x="881" y="571" type="line"/>
      <point x="708" y="560"/>
      <point x="646" y="543"/>
      <point x="597" y="523" type="curve" smooth="yes"/>
      <point x="445" y="463"/>
      <point x="340" y="361"/>
      <point x="340" y="193" type="curve" smooth="yes"/>
      <point x="340" y="24"/>
      <point x="435" y="-137"/>
      <point x="666" y="-137" type="curve" smooth="yes"/>
      <point x="894" y="-137"/>
      <point x="1089" y="40"/>
      <point x="1130" y="279" type="curve"/>
      <point x="1044" y="355" type="line"/>
      <point x="977" y="138"/>
      <point x="818" y="49"/>
      <point x="702" y="49" type="curve" smooth="yes"/>
      <point x="605" y="49"/>
      <point x="553" y="100"/>
      <point x="553" y="193" type="curve" smooth="yes"/>
      <point x="553" y="284"/>
      <point x="600" y="349"/>
      <point x="687" y="387" type="curve" smooth="yes"/>
      <point x="753" y="417"/>
      <point x="874" y="444"/>
      <point x="989" y="444" type="curve" smooth="yes"/>
      <point x="1014" y="444"/>
      <point x="1038" y="443"/>
      <point x="1062" y="440" type="curve"/>
      <point x="1091" y="627" type="line"/>
      <point x="920" y="628"/>
      <point x="756" y="666"/>
      <point x="579" y="768" type="curve"/>
    </contour>
    <contour>
      <point x="1020" y="1208" type="line"/>
      <point x="1020" y="-75" type="line"/>
      <point x="1230" y="-75" type="line"/>
      <point x="1230" y="1208" type="line"/>
    </contour>
    <contour>
      <point x="903" y="1287" type="line"/>
      <point x="903" y="1104" type="line"/>
      <point x="1424" y="1104" type="line"/>
      <point x="1424" y="1287" type="line"/>
    </contour>
    <contour>
      <point x="289" y="1319"/>
      <point x="155" y="1218"/>
      <point x="155" y="1035" type="curve" smooth="yes"/>
      <point x="155" y="933"/>
      <point x="195" y="834"/>
      <point x="343" y="731" type="curve"/>
      <point x="527" y="812" type="line"/>
      <point x="391" y="891"/>
      <point x="354" y="958"/>
      <point x="354" y="1023" type="curve" smooth="yes"/>
      <point x="354" y="1099"/>
      <point x="395" y="1145"/>
      <point x="503" y="1145" type="curve" smooth="yes"/>
      <point x="600" y="1145"/>
      <point x="644" y="1100"/>
      <point x="644" y="1023" type="curve" smooth="yes"/>
      <point x="644" y="943"/>
      <point x="595" y="886"/>
      <point x="451" y="797" type="curve"/>
      <point x="41" y="566" type="line"/>
      <point x="134" y="412" type="line"/>
      <point x="596" y="685" type="line"/>
      <point x="748" y="775"/>
      <point x="851" y="878"/>
      <point x="851" y="1042" type="curve" smooth="yes"/>
      <point x="851" y="1228"/>
      <point x="710" y="1319"/>
      <point x="501" y="1319" type="curve" smooth="yes"/>
    </contour>
    <contour>
      <point x="1126" y="1167" type="move" name="top"/>
    </contour>
    <contour>
      <point x="1129" y="-51" type="move" name="bottom"/>
    </contour>
    <contour>
      <point x="830" y="1167" type="move" name="topcandrabindu"/>
    </contour>
  </outline>
</glyph>
<glyph name="sha-deva.ss02" format="1">
  <advance width="945"/>
  <outline>
    <contour>
      <point x="269" y="1319"/>
      <point x="134" y="1220"/>
      <point x="134" y="1035" type="curve" smooth="yes"/>
      <point x="134" y="933"/>
      <point x="174" y="834"/>
      <point x="320" y="732" type="curve"/>
      <point x="503" y="812" type="line"/>
      <point x="369" y="892"/>
      <point x="333" y="958"/>
      <point x="333" y="1024" type="curve" smooth="yes"/>
      <point x="333" y="1100"/>
      <point x="373" y="1145"/>
      <point x="481" y="1145" type="curve" smooth="yes"/>
      <point x="578" y="1145"/>
      <point x="622" y="1100"/>
      <point x="622" y="1024" type="curve" smooth="yes"/>
      <point x="622" y="945"/>
      <point x="574" y="887"/>
      <point x="428" y="797" type="curve" smooth="yes"/>
      <point x="293" y="717"/>
      <point x="137" y="653"/>
      <point x="-123" y="580" type="curve"/>
      <point x="-67" y="421" type="line"/>
      <point x="165" y="477"/>
      <point x="385" y="565"/>
      <point x="573" y="685" type="curve" smooth="yes"/>
      <point x="726" y="776"/>
      <point x="828" y="879"/>
      <point x="828" y="1036" type="curve" smooth="yes"/>
      <point x="828" y="1229"/>
      <point x="687" y="1319"/>
      <point x="480" y="1319" type="curve" smooth="yes"/>
    </contour>
    <contour>
      <point x="407" y="674" type="line"/>
      <point x="570" y="571"/>
      <point x="730" y="526"/>
      <point x="895" y="524" type="curve" smooth="yes"/>
      <point x="976" y="522"/>
      <point x="1053" y="529"/>
      <point x="1169" y="548" type="curve"/>
      <point x="1161" y="722" type="line"/>
      <point x="1082" y="704"/>
      <point x="996" y="693"/>
      <point x="908" y="695" type="curve" smooth="yes"/>
      <point x="789" y="697"/>
      <point x="668" y="719"/>
      <point x="563" y="774" type="curve"/>
    </contour>
    <contour>
      <point x="27" y="106" type="move" name="top"/>
    </contour>
    <contour>
      <point x="27" y="3" type="move" name="bottom"/>
    </contour>
  </outline>
</glyph>
<glyph name="t_r-deva" format="1">
  <advance width="504"/>
  <outline>
    <contour>
      <point x="-19" y="1287" type="line"/>
      <point x="-19" y="1104" type="line"/>
      <point x="596" y="1104" type="line"/>
      <point x="596" y="1287" type="line"/>
    </contour>
    <contour>
      <point x="727" y="599" type="line"/>
      <point x="481" y="919"/>
      <point x="376" y="949"/>
      <point x="265" y="949" type="curve" smooth="yes"/>
      <point x="165" y="949"/>
      <point x="78" y="899"/>
      <point x="7" y="844" type="curve"/>
      <point x="109" y="673" type="line"/>
      <point x="195" y="729"/>
      <point x="245" y="752"/>
      <point x="294" y="752" type="curve" smooth="yes"/>
      <point x="375" y="752"/>
      <point x="448" y="689"/>
      <point x="606" y="525" type="curve"/>
      <point x="606" y="589" type="line"/>
      <point x="103" y="225" type="line"/>
      <point x="229" y="74" type="line"/>
      <point x="725" y="470" type="line"/>
    </contour>
    <contour>
      <point x="28" y="106" type="move" name="top"/>
    </contour>
    <contour>
      <point x="28" y="3" type="move" name="bottom"/>
    </contour>
  </outline>
</glyph>
<glyph name="tha_ra-deva" format="1">
  <advance width="1258"/>
  <outline>
    <contour>
      <point x="245" y="99" type="line"/>
      <point x="371" y="-51" type="line"/>
      <point x="919" y="386" type="line"/>
      <point x="828" y="493" type="line"/>
    </contour>
    <component base="tha-deva"/>
    <contour>
      <point x="979" y="1167" type="move" name="top"/>
    </contour>
    <contour>
      <point x="980" y="27" type="move" name="bottom"/>
    </contour>
  </outline>
</glyph>
<glyph name="tt-deva" format="1">
  <advance width="1014"/>
  <outline>
    <component base="tta-deva"/>
    <component base="halant-deva" xOffset="478" yOffset="12"/>
    <contour>
      <point x="46" y="106" type="move" name="top"/>
    </contour>
    <contour>
      <point x="46" y="3" type="move" name="bottom"/>
    </contour>
  </outline>
</glyph>
<glyph name="tth_ya-deva" format="1">
  <advance width="2363"/>
  <outline>
    <component base="ttha-deva"/>
    <component base="ya-deva.post" xOffset="1177"/>
    <contour>
      <point x="2084" y="1167" type="move" name="top"/>
    </contour>
    <contour>
      <point x="2084" y="27" type="move" name="bottom"/>
    </contour>
  </outline>
</glyph>
<glyph name="z-deva" format="1">
  <advance width="927"/>
  <outline>
    <component base="j-deva"/>
    <component base="nukta-deva" xOffset="372" yOffset="3"/>
    <contour>
      <point x="43" y="106" type="move" name="top"/>
    </contour>
    <contour>
      <point x="43" y="3" type="move" name="bottom"/>
    </contour>
  </outline>
</glyph>
